<svg width="20" height="20" viewBox="0 0 20 20" fill="none" xmlns="http://www.w3.org/2000/svg">
<g clip-path="url(#clip0_1_697)">
<path d="M5.62902 16.2595H10.8506C11.8944 16.2595 12.7389 15.4135 12.7389 14.3706V13.6211C12.7389 13.5453 12.6774 13.4838 12.6016 13.4838H11.2215C11.1458 13.4838 11.0843 13.5453 11.0843 13.6211V14.2616C11.0843 14.6093 10.8025 14.8911 10.455 14.8911H6.02436C5.67683 14.8911 5.39502 14.6093 5.39502 14.2616V9.25452C5.39502 8.9069 5.67683 8.62499 6.02436 8.62499H10.455C10.8025 8.62499 11.0843 8.9069 11.0843 9.25452V9.94099C11.0843 10.0168 11.1458 10.0783 11.2215 10.0783H12.6016C12.6774 10.0783 12.7389 10.0168 12.7389 9.94099V9.14619C12.7389 8.10295 11.8944 7.25723 10.8506 7.25723H5.62902C4.58613 7.25723 3.74072 8.10295 3.74072 9.14619V14.3706C3.74072 15.4139 4.58613 16.2595 5.62902 16.2595Z" fill="#3F96FF"/>
<path d="M16.0226 10.3599V17.4611C16.0226 18.6115 15.0905 19.5439 13.9404 19.5439H2.53871C1.38868 19.5439 0.456543 18.6115 0.456543 17.4611V6.05604C0.456543 4.90566 1.38868 3.97321 2.53871 3.97321H9.85217" stroke="#3F96FF" stroke-width="1.73913" stroke-miterlimit="10" stroke-linecap="round"/>
<path d="M19.9994 4.06419C20.0013 4.16921 19.9319 4.26206 19.8305 4.29037C19.7922 4.30072 19.7307 4.31199 19.6462 4.3272C19.2009 4.40727 18.0177 4.62006 17.2158 5.36375C16.4778 6.04808 16.2572 7.37351 16.1845 7.80946C16.172 7.88465 16.1638 7.93427 16.1562 7.96346C16.13 8.06518 16.0384 8.13641 15.9331 8.13641C15.8272 8.13608 15.7356 8.06427 15.7097 7.96199C15.7012 7.92727 15.6924 7.87246 15.6808 7.79665C15.6124 7.35832 15.4304 6.19389 14.6394 5.3528C13.8774 4.54273 12.6026 4.37074 12.1836 4.31411C12.1175 4.30529 12.0737 4.2992 12.0463 4.29311C11.9434 4.26998 11.8695 4.18017 11.8668 4.07454C11.864 3.96921 11.9328 3.87545 12.0344 3.84683C12.0749 3.83527 12.1401 3.82339 12.2301 3.80665C12.7149 3.71624 13.8506 3.50467 14.6519 2.77223C15.4587 2.03463 15.6318 0.739024 15.6887 0.313141C15.6973 0.249213 15.7031 0.207204 15.7085 0.181328C15.732 0.0769121 15.8224 0.00324296 15.9289 0.00111203C16.0351 -0.00345425 16.1315 0.0720417 16.1571 0.177675C16.1647 0.209335 16.172 0.258041 16.183 0.331711C16.2493 0.780424 16.4255 1.97192 17.2234 2.78076C18.0074 3.57529 19.2183 3.75338 19.6742 3.82035C19.7456 3.831 19.7931 3.8377 19.8233 3.845C19.9255 3.86936 19.9983 3.96008 20.0001 4.0651L19.9994 4.06419Z" fill="#3F96FF"/>
</g>
<defs>
<clipPath id="clip0_1_697">
<rect width="20" height="20" fill="white"/>
</clipPath>
</defs>
</svg>


