<svg width="13" height="13" viewBox="0 0 13 13" fill="none" xmlns="http://www.w3.org/2000/svg">
<g clip-path="url(#clip0_1_686)">
<path d="M0.238133 0.238067C0.390499 0.0857472 0.597125 0.000178428 0.812571 0.000178428C1.02802 0.000178428 1.23464 0.0857472 1.38701 0.238067L6.50007 5.35113L11.6131 0.238067C11.6881 0.160465 11.7777 0.0985673 11.8769 0.055985C11.976 0.0134027 12.0826 -0.00901109 12.1905 -0.00994857C12.2984 -0.010886 12.4054 0.00967159 12.5052 0.0505248C12.6051 0.091378 12.6958 0.151709 12.7721 0.227997C12.8484 0.304284 12.9087 0.395002 12.9496 0.494855C12.9904 0.594708 13.011 0.701698 13.01 0.809581C13.0091 0.917464 12.9867 1.02408 12.9441 1.12321C12.9015 1.22234 12.8396 1.31199 12.762 1.38694L7.64895 6.5L12.762 11.6131C12.91 11.7663 12.9919 11.9715 12.9901 12.1846C12.9882 12.3976 12.9028 12.6014 12.7521 12.752C12.6015 12.9027 12.3977 12.9881 12.1846 12.99C11.9716 12.9918 11.7664 12.9099 11.6131 12.7619L6.50007 7.64888L1.38701 12.7619C1.23377 12.9099 1.02853 12.9918 0.815495 12.99C0.60246 12.9881 0.398675 12.9027 0.248031 12.752C0.0973864 12.6014 0.0119367 12.3976 0.0100855 12.1846C0.00823426 11.9715 0.0901297 11.7663 0.238133 11.6131L5.3512 6.5L0.238133 1.38694C0.0858129 1.23458 0.000244141 1.02795 0.000244141 0.812505C0.000244141 0.597059 0.0858129 0.390434 0.238133 0.238067Z" fill="black"/>
</g>
<defs>
<clipPath id="clip0_1_686">
<rect width="13" height="13" fill="white"/>
</clipPath>
</defs>
</svg>


